PathFileType  4	(X/Y/Z) C:\Users\wagnerel85475\Documents\Thesis\opencap-core\Data\3375ffbc-daeb-4a43-b4f7-ac9899cd4c71\MarkerData\PreAugmentation
DataRate	CameraRate	NumFrames	NumMarkers	Units	OrigDataRate	OrigDataStartFrame	OrigNumFrames
60.0	60.0	12	20	m	60.0	353	403
Frame#	Time	Neck			RShoulder			RElbow			RWrist			LShoulder			LElbow			LWrist			midHip			RHip			RKnee			RAnkle			LHip			LKnee			LAnkle			LBigToe			LSmallToe			LHeel			RBigToe			RSmallToe			RHeel			
		X1	Y1	Z1	X2	Y2	Z2	X3	Y3	Z3	X4	Y4	Z4	X5	Y5	Z5	X6	Y6	Z6	X7	Y7	Z7	X8	Y8	Z8	X9	Y9	Z9	X10	Y10	Z10	X11	Y11	Z11	X12	Y12	Z12	X13	Y13	Z13	X14	Y14	Z14	X15	Y15	Z15	X16	Y16	Z16	X17	Y17	Z17	X18	Y18	Z18	X19	Y19	Z19	X20	Y20	Z20	

353	5.8666667	0.9771700	1.3658000	-0.0933900	0.9690000	1.3656500	0.1035500	0.8798900	1.0623000	0.1855200	0.9743000	0.7779900	0.2428300	0.9886600	1.3562500	-0.2829600	0.9316300	1.0664200	-0.3688300	1.0528700	0.7897700	-0.4036500	0.9884600	0.8179800	-0.0774000	0.9892600	0.8278400	0.0458400	0.9453300	0.3316500	0.0475200	0.8862000	-0.1770400	0.1260100	0.9952200	0.8160300	-0.2010100	0.9217400	0.3347700	-0.1986900	0.8905000	-0.1598600	-0.2782100	1.0887800	-0.2200000	-0.3682200	1.0382400	-0.2189000	-0.4006300	0.8498900	-0.2197000	-0.2497400	1.0944400	-0.2229700	0.2421100	1.0581800	-0.2150300	0.2552700	0.8742400	-0.2273000	0.1069100
354	5.8833333	0.9776800	1.3631600	-0.0934200	0.9690800	1.3657400	0.1035100	0.8799500	1.0648200	0.1853200	0.9744500	0.7779100	0.2431400	0.9886800	1.3562700	-0.2829200	0.9313900	1.0622200	-0.3688600	1.0461100	0.7856300	-0.4007800	0.9881500	0.8179100	-0.0774500	0.9886800	0.8248400	0.0464500	0.9366700	0.3295200	0.0442400	0.8861200	-0.1772800	0.1260500	0.9952500	0.8130500	-0.2009500	0.9232600	0.3325200	-0.1983200	0.8905200	-0.1600400	-0.2782800	1.0883500	-0.2201900	-0.3681000	1.0376400	-0.2223900	-0.4011400	0.8491000	-0.2228000	-0.2503700	1.0940500	-0.2231400	0.2422600	1.0585600	-0.2149200	0.2552900	0.8751100	-0.2273400	0.1070600
355	5.9000000	0.9772400	1.3629800	-0.0934600	0.9691500	1.3656600	0.1035300	0.8802900	1.0650400	0.1853400	0.9742400	0.7779200	0.2428300	0.9887400	1.3561700	-0.2829500	0.9314200	1.0627000	-0.3687800	1.0382200	0.7807500	-0.4044800	0.9886000	0.8178600	-0.0774700	0.9894300	0.8210100	0.0457400	0.9453200	0.3317600	0.0474600	0.8862000	-0.1771200	0.1260200	1.0030100	0.8169600	-0.2048200	0.9215000	0.3316900	-0.2055300	0.8905400	-0.1599800	-0.2782500	1.0888200	-0.2199200	-0.3682800	1.0378000	-0.2223800	-0.4012600	0.8491900	-0.2228200	-0.2504200	1.0944300	-0.2229600	0.2421400	1.0581500	-0.2149900	0.2552900	0.8742100	-0.2273500	0.1069300
356	5.9166667	0.9776500	1.3631000	-0.0934500	0.9690200	1.3656800	0.1034700	0.8800000	1.0579000	0.1853300	0.9747900	0.7743300	0.2429000	0.9886800	1.3562300	-0.2829100	0.9313900	1.0620800	-0.3687900	1.0384500	0.7777000	-0.4045800	0.9959000	0.8148300	-0.0817300	0.9900200	0.8193300	0.0456300	0.9454800	0.3316800	0.0474400	0.8861500	-0.1772900	0.1260500	0.9951900	0.8159500	-0.2085600	0.9146200	0.3336800	-0.2024200	0.8905400	-0.1600200	-0.2782800	1.0883900	-0.2201100	-0.3681400	1.0376600	-0.2223500	-0.4011800	0.8491700	-0.2228300	-0.2503600	1.1007200	-0.2204500	0.2380900	1.0585800	-0.2147900	0.2552900	0.8751000	-0.2273500	0.1070700
357	5.9333333	0.9772300	1.3629100	-0.0934800	0.9691700	1.3656600	0.1035100	0.8807900	1.0609500	0.1851600	0.9813100	0.7753200	0.2382800	0.9886600	1.3560900	-0.2829600	0.9313100	1.0622400	-0.3688100	1.0295700	0.7731000	-0.4007900	0.9962300	0.8147700	-0.0817400	0.9904300	0.8195800	0.0451900	0.9454000	0.3316300	0.0475000	0.8862000	-0.1771200	0.1260100	0.9950900	0.8159900	-0.2085000	0.9214100	0.3317200	-0.2055700	0.8905300	-0.1599900	-0.2782500	1.0887800	-0.2199400	-0.3682600	1.0378000	-0.2224500	-0.4012500	0.8491500	-0.2228700	-0.2504200	1.1011000	-0.2202800	0.2379300	1.0582200	-0.2149700	0.2552300	0.8742200	-0.2273300	0.1069400
358	5.9500000	0.9776100	1.3631100	-0.0934500	0.9690600	1.3657100	0.1035000	0.8805300	1.0606400	0.1851000	0.9810300	0.7787800	0.2388100	0.9886400	1.3562100	-0.2829000	0.9312600	1.0616900	-0.3688200	1.0300300	0.7701600	-0.4008200	0.9883400	0.8139300	-0.0777900	0.9898600	0.8194800	0.0456700	0.9454800	0.3316000	0.0474700	0.8860900	-0.1772700	0.1260300	0.9873500	0.8149800	-0.2048000	0.9224800	0.3325900	-0.2056500	0.8905300	-0.1600500	-0.2782900	1.0957000	-0.2171200	-0.3713400	1.0377000	-0.2223500	-0.4011800	0.8490900	-0.2228200	-0.2503600	1.1007700	-0.2204600	0.2380300	1.0586200	-0.2150000	0.2552300	0.8661200	-0.2264200	0.1047900
359	5.9666667	0.9770800	1.3629700	-0.0934900	0.9690500	1.3656500	0.1035000	0.8880100	1.0612800	0.1807900	0.9651100	0.7768100	0.2399300	0.9886100	1.3561200	-0.2829800	0.9313900	1.0592800	-0.3686600	1.0289900	0.7697700	-0.4004900	0.9804700	0.8169000	-0.0808600	0.9897000	0.8237700	0.0454700	0.9447700	0.3350600	0.0479700	0.8862000	-0.1771300	0.1259900	0.9872500	0.8150800	-0.2047900	0.9217600	0.3353800	-0.2052300	0.8905300	-0.1599700	-0.2782500	1.0888700	-0.2199400	-0.3682700	1.0378000	-0.2223900	-0.4012400	0.8491200	-0.2228200	-0.2504000	1.1011100	-0.2203400	0.2378700	1.0582600	-0.2151200	0.2551700	0.8652800	-0.2264200	0.1046700
360	5.9833333	0.9774900	1.3631600	-0.0934800	0.9601800	1.3658900	0.1003500	0.8877800	1.0610700	0.1807300	0.9651100	0.7767600	0.2402600	0.9886200	1.3563000	-0.2829200	0.9312900	1.0588500	-0.3686500	1.0225200	0.7690000	-0.4044200	0.9879900	0.8140000	-0.0850200	0.9965100	0.8242600	0.0417600	0.9448300	0.3350000	0.0479000	0.8862500	-0.1801700	0.1266300	0.9871600	0.8121600	-0.2046100	0.9152300	0.3343500	-0.2017200	0.8905300	-0.1600000	-0.2782700	1.0957800	-0.2171600	-0.3713700	1.0377500	-0.2223400	-0.4011800	0.8498400	-0.2196400	-0.2496600	1.1008100	-0.2204800	0.2379700	1.0586200	-0.2149800	0.2552000	0.8661200	-0.2265200	0.1048000
361	6.0000000	0.9770800	1.3630300	-0.0934700	0.9603600	1.3658700	0.1003400	0.8880300	1.0612900	0.1807600	0.9648900	0.7768200	0.2398900	0.9885400	1.3562600	-0.2829200	0.9309900	1.0624700	-0.3687200	1.0139400	0.7676400	-0.4009000	0.9880500	0.8178100	-0.0848500	0.9966800	0.8218700	0.0415100	0.9447900	0.3350300	0.0479700	0.8862900	-0.1771400	0.1259600	0.9949600	0.8132600	-0.2084100	0.9141800	0.3334200	-0.2016100	0.8905000	-0.1599800	-0.2782200	1.0961200	-0.2169100	-0.3715700	1.0375400	-0.2159100	-0.4013400	0.8499900	-0.2198300	-0.2497100	1.1078000	-0.2176700	0.2336000	1.0583900	-0.2150000	0.2550700	0.8730400	-0.2234400	0.1004100
362	6.0166667	0.9775800	1.3631600	-0.0934600	0.9690400	1.3657000	0.1034800	0.8872000	1.0652200	0.1808600	0.9558500	0.7756200	0.2373600	0.9886000	1.3563300	-0.2828800	0.9232400	1.0584500	-0.3651700	1.0146000	0.7678100	-0.4011500	0.9876400	0.8177800	-0.0848200	0.9965300	0.8242700	0.0417300	0.9448700	0.3350900	0.0479100	0.8862500	-0.1772000	0.1259800	0.9948100	0.8131500	-0.2084100	0.9153900	0.3342800	-0.2016400	0.8905400	-0.1600500	-0.2782300	1.0958000	-0.2171000	-0.3714900	1.0374800	-0.2159300	-0.4013200	0.8500500	-0.2199500	-0.2496100	1.1075300	-0.2178300	0.2337500	1.0587800	-0.2150500	0.2551300	0.8739600	-0.2233400	0.1004700
363	6.0333333	0.9772500	1.3657800	-0.0934500	0.9691700	1.3656800	0.1034600	0.8874400	1.0654700	0.1808700	0.9555700	0.7756900	0.2369700	0.9885200	1.3562000	-0.2829800	0.9229100	1.0620200	-0.3652300	1.0135000	0.7675300	-0.4008100	0.9880200	0.8178400	-0.0849000	0.9971100	0.8246900	0.0412400	0.9448700	0.3354100	0.0479700	0.8863000	-0.1771200	0.1259500	0.9947700	0.8132500	-0.2084500	0.9220000	0.3353900	-0.2051600	0.8905300	-0.1599700	-0.2781900	1.0960900	-0.2169800	-0.3716000	1.0382700	-0.2189300	-0.4007300	0.8500800	-0.2199900	-0.2496800	1.1078700	-0.2176500	0.2335900	1.0648800	-0.2125200	0.2509800	0.8819800	-0.2243000	0.1026400
364	6.0500000	0.9777500	1.3659500	-0.0934000	0.9690700	1.3657000	0.1035000	0.8868400	1.0624800	0.1810100	0.9625200	0.7765200	0.2330400	0.9886300	1.3563600	-0.2828900	0.9226600	1.0577200	-0.3652300	1.0141900	0.7641100	-0.4012200	0.9876200	0.8177700	-0.0848900	0.9962600	0.8216000	0.0418700	0.9450000	0.3351600	0.0479500	0.8863200	-0.1810100	0.1253400	0.9945900	0.8169800	-0.2083200	0.9153900	0.3342800	-0.2016400	0.8905700	-0.1600500	-0.2782200	1.0958100	-0.2171300	-0.3714500	1.0382000	-0.2188200	-0.4006600	0.8500900	-0.2200100	-0.2495900	1.1076000	-0.2177600	0.2336900	1.0651600	-0.2124700	0.2510400	0.8828200	-0.2242500	0.1027200
